HIERARCHY
ROOT Hips
{
  OFFSET -187.679 86.5976 -156.378
  CHANNELS 6 Xposition Yposition Zposition Zrotation Xrotation Yrotation
  JOINT LeftUpLeg
  {
    OFFSET 8.64259 1.95398 -2.38835
    CHANNELS 3 Zrotation Xrotation Yrotation
    JOINT LeftLeg
    {
      OFFSET 43.7702 0 0
      CHANNELS 3 Zrotation Xrotation Yrotation
      JOINT LeftFoot
      {
        OFFSET 40.6238 0 0
        CHANNELS 3 Zrotation Xrotation Yrotation
        JOINT LeftToeBase
        {
          OFFSET 12.7242 0 0
          CHANNELS 3 Zrotation Xrotation Yrotation
          End Site
          {
            OFFSET 0 0 0
          }
        }
      }
    }
  }
  JOINT RightUpLeg
  {
    OFFSET -8.2249 1.95398 -2.59336
    CHANNELS 3 Zrotation Xrotation Yrotation
    JOINT RightLeg
    {
      OFFSET 43.5653 0 0
      CHANNELS 3 Zrotation Xrotation Yrotation
      JOINT RightFoot
      {
        OFFSET 40.6238 0 0
        CHANNELS 3 Zrotation Xrotation Yrotation
        JOINT RightToeBase
        {
          OFFSET 12.7242 0 0
          CHANNELS 3 Zrotation Xrotation Yrotation
          End Site
          {
            OFFSET 0 0 0
          }
        }
      }
    }
  }
  JOINT Spine
  {
    OFFSET 0.165834 0.87714 6.61349
    CHANNELS 3 Zrotation Xrotation Yrotation
    JOINT Spine1
    {
      OFFSET 7.38963 1.71661e-005 0
      CHANNELS 3 Zrotation Xrotation Yrotation
      JOINT Spine2
      {
        OFFSET 11.9445 1.14441e-005 0
        CHANNELS 3 Zrotation Xrotation Yrotation
        JOINT Spine3
        {
          OFFSET 14.7254 4.19617e-005 0
          CHANNELS 3 Zrotation Xrotation Yrotation
          JOINT Spine4
          {
            OFFSET 10.9679 0 0
            CHANNELS 3 Zrotation Xrotation Yrotation
            JOINT RightShoulder
            {
              OFFSET 2.46616 -1.6653 3.69651
              CHANNELS 3 Zrotation Xrotation Yrotation
              JOINT RightArm
              {
                OFFSET 13.0012 0 0
                CHANNELS 3 Zrotation Xrotation Yrotation
                JOINT RightForeArm
                {
                  OFFSET 28.7848 1.52588e-005 0
                  CHANNELS 3 Zrotation Xrotation Yrotation
                  JOINT RightHand
                  {
                    OFFSET 26.5688 1.52588e-005 0
                    CHANNELS 3 Zrotation Xrotation Yrotation
                    End Site
                    {
                      OFFSET 0 0 0
                    }
                  }
                }
              }
            }
            JOINT LeftShoulder
            {
              OFFSET 2.38034 -1.29275 -3.7523
              CHANNELS 3 Zrotation Xrotation Yrotation
              JOINT LeftArm
              {
                OFFSET 16.3182 6.10352e-005 0
                CHANNELS 3 Zrotation Xrotation Yrotation
                JOINT LeftForeArm
                {
                  OFFSET 27.0901 0 0
                  CHANNELS 3 Zrotation Xrotation Yrotation
                  JOINT LeftHand
                  {
                    OFFSET 24.5451 1.52588e-005 0
                    CHANNELS 3 Zrotation Xrotation Yrotation
                    End Site
                    {
                      OFFSET 0 0 0
                    }
                  }
                }
              }
            }
            JOINT Neck
            {
              OFFSET 5.0226 -0.0266342 0
              CHANNELS 3 Zrotation Xrotation Yrotation
              JOINT Head
              {
                OFFSET 6.69363 2.86102e-005 0
                CHANNELS 3 Zrotation Xrotation Yrotation
                End Site
                {
                  OFFSET 0 0 0
                }
              }
            }
          }
        }
      }
    }
  }
}
MOTION
Frames:	6
Frame Time:	0.0416667
35.4006 7.37658 41.5261 3.41782 -10.461 -1.52528 -174.205 -3.38528 91.089 -41.9399 48.1613 17.6997 88.0982 16.3647 3.88111 -3.70025 -4.88155 -13.288 178.961 -17.6551 92.093 -8.70255 -5.9225 -4.9865 86.8533 -11.1881 -1.26061 40.1474 1.75625 -0.353606 1.1993 9.31659 -90.8822 8.25425 2.00562 -1.86278 -3.41659 1.92172 -1.94924 -25.9591 2.47268 -1.17378 -5.94648 2.47267 -1.17378 109.442 2.03457 -52.525 23.4909 -53.2451 -33.646 10.3074 -0.41967 -139.699 84.3796 17.0437 13.6939 -70.2506 -12.0127 116.891 -25.1941 35.1028 -36.5709 99.5858 -30.42 -92.0362 -80.609 30.524 -41.3539 70.6929 2.16358 8.5715 4.70327 -4.47044 4.27059 
35.3829 7.36778 41.4901 3.32649 -10.4961 -1.49745 -174.119 -3.33561 91.1596 -41.9471 47.8581 17.5079 88.3478 16.3715 3.6059 -4.01171 -4.63465 -13.8048 179.127 -17.8362 92.271 -8.71426 -6.09861 -5.11179 87.6145 -11.562 -1.76791 38.5605 1.32713 0.712085 1.21356 9.30605 -90.8691 8.27532 2.03967 -1.83947 -3.39543 1.95676 -1.92746 -25.9386 2.49814 -1.1413 -5.92597 2.49815 -1.14131 109.455 1.86536 -52.6326 23.6112 -53.145 -33.1439 10.5722 -0.660943 -139.81 83.5947 17.5928 14.5515 -70.333 -11.8212 116.749 -25.141 35.0743 -36.5032 98.773 -30.4245 -91.9833 -80.6107 29.6097 -40.288 70.6944 2.01324 8.44704 4.51233 -4.52104 4.2624 
35.3973 7.38496 41.4878 3.38708 -10.4401 -1.48399 -174.16 -3.22371 91.1272 -42.0618 47.8857 17.5914 88.2891 16.3268 3.58468 -2.60592 -5.07388 -12.4618 179.227 -17.7635 92.347 -8.70709 -6.03807 -5.1713 87.4706 -11.5382 -1.89699 39.0061 1.44921 0.426717 1.20195 9.27911 -90.8628 8.32912 2.01878 -1.8274 -3.34166 1.93641 -1.91446 -25.8846 2.4746 -1.13608 -5.87199 2.4746 -1.13607 109.438 1.80325 -52.7609 23.736 -53.141 -32.7496 9.48684 0.0195637 -140.029 85.3758 15.9496 12.2088 -70.4198 -11.9817 116.461 -25.1398 34.834 -35.9797 99.1266 -30.5178 -91.9198 -80.5536 29.7711 -40.5121 70.5674 2.03777 8.42228 4.3631 -4.46937 4.48298 
35.3917 7.38954 41.5397 3.55233 -10.3902 -1.52211 -174.173 -3.17294 91.1444 -41.9312 48.0362 17.5385 88.2761 16.2293 3.38689 -3.63097 -5.21782 -12.7485 179.295 -17.5728 92.3493 -8.69852 -5.932 -5.23364 86.5822 -11.1392 -1.58713 40.7809 1.91987 -0.744878 1.16613 9.25491 -90.858 8.37699 1.94898 -1.81513 -3.29391 1.86722 -1.89915 -25.836 2.40433 -1.14538 -5.82332 2.40434 -1.14538 109.421 1.67479 -52.9471 23.5848 -53.1669 -32.623 9.22984 0.310011 -140.135 85.5826 15.4496 11.6143 -70.4963 -11.982 116.261 -25.3465 34.6308 -35.2879 100.948 -30.6932 -91.8002 -80.608 32.2229 -43.3532 70.4495 1.94932 8.48068 4.28479 -4.5986 4.19236 
35.3848 7.39485 41.5034 3.40947 -10.3901 -1.51127 -174.177 -3.16582 91.0867 -42.1055 47.9445 17.6079 88.0958 16.3193 3.79211 -3.33852 -4.53074 -13.6455 179.424 -17.7095 92.4541 -8.69142 -5.94548 -5.32542 87.2761 -11.4312 -1.71944 39.058 1.60593 -0.393102 1.18512 9.23298 -90.8428 8.42107 1.9932 -1.78904 -3.24969 1.91254 -1.87502 -25.7926 2.43867 -1.10717 -5.77994 2.43867 -1.10717 109.388 1.47443 -53.2616 24.3041 -53.3316 -31.5516 9.80352 -0.334944 -140.29 84.8956 16.5583 13.0109 -70.6009 -11.9023 116.017 -25.1858 34.5737 -35.2135 98.3922 -30.7103 -92.2122 -80.5858 29.3797 -40.0443 70.3275 1.94023 8.38784 4.22215 -4.52599 4.20356 
35.3991 7.38148 41.4846 3.46268 -10.4443 -1.53214 -174.192 -3.17402 91.0516 -42.2463 47.8562 17.6773 88.1856 16.3213 3.68943 -3.51046 -3.89148 -14.6881 179.456 -17.8334 92.4942 -8.69458 -5.95481 -5.39262 87.9308 -11.7161 -1.99011 38.0848 1.30733 0.444548 1.16274 9.21633 -90.836 8.45392 1.95124 -1.77403 -3.21691 1.87129 -1.8582 -25.7593 2.39415 -1.10548 -5.74666 2.39415 -1.10548 109.347 1.48003 -53.4161 24.2384 -53.4139 -31.5142 9.50803 0.0347628 -140.261 85.088 15.9633 12.31 -70.6998 -11.9877 115.727 -25.3419 34.271 -34.5167 98.9339 -30.907 -92.3059 -80.6229 30.319 -41.1202 70.2089 1.94764 8.31547 4.00365 -4.46829 4.09341 
